<svg xmlns="http://www.w3.org/2000/svg" width="720" height="506" viewBox="0 0 720 506" role="img" aria-label="iPhone battery(pulled original) 16Pro">
  <defs>
    <filter id="shadow" x="-20%" y="-20%" width="140%" height="150%">
      <feDropShadow dx="0" dy="22" stdDeviation="18" flood-color="#111923" flood-opacity=".24"/>
    </filter>
    <linearGradient id="card" x1="0" x2="1" y1="0" y2="1">
      <stop offset="0" stop-color="#ffffff"/>
      <stop offset="1" stop-color="#fbf7ec"/>
    </linearGradient>
  </defs>
  <rect width="720" height="506" rx="0" fill="url(#card)"/>
  <circle cx="624" cy="76" r="88" fill="#dff5fa" opacity=".75"/>
  <circle cx="100" cy="420" r="130" fill="#e8eef3" opacity=".8"/>
  <g opacity=".42" fill="none" stroke="#c7d4de" stroke-width="2">
    <path d="M52 92h118M50 124h86M532 404h118M560 436h82"/>
  </g>
  
      <path d="M116 204 C138 178, 34 264, 64 234" fill="none" stroke="#252f3a" stroke-width="18" stroke-linecap="round"/>
      <path d="M116 204 C138 178, 34 264, 64 234" fill="none" stroke="#56616c" stroke-width="8" stroke-linecap="round"/>
      <rect x="48" y="221" width="34" height="26" rx="4" fill="#1c252f" stroke="#75808a" stroke-width="2"/>
      <rect x="56" y="228" width="8" height="12" rx="2" fill="#f5c451"/>
      <rect x="67" y="228" width="8" height="12" rx="2" fill="#d8e2ea"/>
    
  
    <g transform="rotate(3 290 210)">
      <g filter="url(#shadow)">
        <g fill="#151b22" stroke="#303b46" stroke-width="3">
          <rect x="168" y="48" width="240" height="318" rx="18"/>
        </g>
        <path d="M190 86 h168" stroke="#2b3540" stroke-width="2" opacity=".75"/>
        <rect x="204" y="106" width="74" height="12" rx="6" fill="#f5c451"/>
        <rect x="204" y="126" width="142" height="8" rx="4" fill="#60707f" opacity=".65"/>
        <rect x="204" y="142" width="112" height="8" rx="4" fill="#60707f" opacity=".45"/>
        <text x="204" y="203" fill="#f6fbff" font-family="Arial, Helvetica, sans-serif" font-size="54" font-weight="800">16Pro</text>
        <text x="204" y="238" fill="#aeb9c4" font-family="Arial, Helvetica, sans-serif" font-size="20" font-weight="700">16 SERIES</text>
        <text x="204" y="274" fill="#f5c451" font-family="Arial, Helvetica, sans-serif" font-size="18" font-weight="800">PULLED ORIGINAL</text>
        <text x="204" y="308" fill="#dce6ed" font-family="Arial, Helvetica, sans-serif" font-size="16">PULLED ORIGINAL</text>
      </g>
    </g>
    
  <g transform="translate(44 42)">
    <rect width="126" height="34" rx="17" fill="#17212b"/>
    <text x="63" y="23" text-anchor="middle" fill="#ffffff" font-family="Arial, Helvetica, sans-serif" font-size="15" font-weight="800">16 SERIES</text>
  </g>
  <g transform="translate(44 424)">
    <rect width="214" height="38" rx="19" fill="#ffffff" stroke="#dce5ee"/>
    <text x="107" y="25" text-anchor="middle" fill="#263747" font-family="Arial, Helvetica, sans-serif" font-size="15" font-weight="800">MODEL MATCHED IMAGE</text>
  </g>
</svg>
